HIERARCHY
ROOT root
{
	OFFSET 0.000000 0.000000 0.000000
	CHANNELS 6 Xposition Yposition Zposition Zrotation Yrotation Xrotation
	JOINT lhip
	{
		OFFSET 0.058581 -0.082280 -0.017664
		CHANNELS 3 Zrotation Yrotation Xrotation
		JOINT lknee
		{
			OFFSET 0.043451 -0.386469 0.008037
			CHANNELS 3 Zrotation Yrotation Xrotation
			JOINT lankle
			{
				OFFSET -0.014790 -0.426874 -0.037428
				CHANNELS 3 Zrotation Yrotation Xrotation
				JOINT ltoe
				{
					OFFSET 0.041054 -0.060286 0.122042
					CHANNELS 3 Zrotation Yrotation Xrotation
					End Site
					{
						OFFSET 0.000000 0.000000 0.000000
					}
				}
			}
		}
	}
	JOINT rhip
	{
		OFFSET -0.060310 -0.090513 -0.013543
		CHANNELS 3 Zrotation Yrotation Xrotation
		JOINT rknee
		{
			OFFSET -0.043257 -0.383688 -0.004843
			CHANNELS 3 Zrotation Yrotation Xrotation
			JOINT rankle
			{
				OFFSET 0.019056 -0.420046 -0.034562
				CHANNELS 3 Zrotation Yrotation Xrotation
				JOINT rtoe
				{
					OFFSET -0.034840 -0.062106 0.130323
					CHANNELS 3 Zrotation Yrotation Xrotation
					End Site
					{
						OFFSET 0.000000 0.000000 0.000000
					}
				}
			}
		}
	}
	JOINT lowerback
	{
		OFFSET 0.004439 0.124404 -0.038385
		CHANNELS 3 Zrotation Yrotation Xrotation
		JOINT upperback
		{
			OFFSET 0.004488 0.137956 0.026820
			CHANNELS 3 Zrotation Yrotation Xrotation
			JOINT chest
			{
				OFFSET -0.002265 0.056032 0.002855
				CHANNELS 3 Zrotation Yrotation Xrotation
				JOINT lowerneck
				{
					OFFSET -0.013390 0.211636 -0.033468
					CHANNELS 3 Zrotation Yrotation Xrotation
					JOINT upperneck
					{
						OFFSET 0.010113 0.088937 0.050410
						CHANNELS 3 Zrotation Yrotation Xrotation
						End Site
						{
							OFFSET 0.000000 0.000000 0.000000
						}
					}
				}
				JOINT lclavicle
				{
					OFFSET 0.071702 0.114000 -0.018898
					CHANNELS 3 Zrotation Yrotation Xrotation
					JOINT lshoulder
					{
						OFFSET 0.122921 0.045205 -0.019046
						CHANNELS 3 Zrotation Yrotation Xrotation
						JOINT lelbow
						{
							OFFSET 0.255332 -0.015649 -0.022946
							CHANNELS 3 Zrotation Yrotation Xrotation
							JOINT lwrist
							{
								OFFSET 0.265709 0.012698 -0.007375
								CHANNELS 3 Zrotation Yrotation Xrotation
								End Site
								{
									OFFSET 0.000000 0.000000 0.000000
								}
							}
						}
					}
				}
				JOINT rclavicle
				{
					OFFSET -0.082954 0.112472 -0.023707
					CHANNELS 3 Zrotation Yrotation Xrotation
					JOINT rshoulder
					{
						OFFSET -0.113228 0.046853 -0.008472
						CHANNELS 3 Zrotation Yrotation Xrotation
						JOINT relbow
						{
							OFFSET -0.260127 -0.014369 -0.031269
							CHANNELS 3 Zrotation Yrotation Xrotation
							JOINT rwrist
							{
								OFFSET -0.269108 0.006794 -0.006027
								CHANNELS 3 Zrotation Yrotation Xrotation
								End Site
								{
									OFFSET 0.000000 0.000000 0.000000
								}
							}
						}
					}
				}
			}
		}
	}
}
MOTION
Frames: 13
Frame Time: 0.033333
0.871847 -1.856617 0.972668 166.654185 0.901371 87.479073 1.142642 -1.037507 -8.202690 -2.288464 5.080584 13.255416 4.476204 10.703298 -13.459694 0.000000 -0.000000 0.000000 1.702685 -8.329066 9.381055 -2.371952 -6.136058 6.700666 1.904451 -10.555773 -20.179734 0.000000 -0.000000 0.000000 3.008844 4.609507 13.364199 1.247981 -4.191159 9.394067 0.571397 -1.774383 6.409547 -3.013619 5.307050 3.842316 0.912608 4.366769 0.962479 -26.139077 3.372785 4.857829 -53.603736 1.855562 9.597545 10.161127 -45.159319 5.271625 -1.508209 -10.166501 -21.825431 22.508856 0.876961 5.711268 51.234017 -2.276011 11.689884 -12.401491 40.416763 4.339272 8.849942 7.757131 -5.556101 
0.872091 -1.856497 0.972291 166.815527 0.804296 87.576678 1.001400 -0.799716 -8.569208 -2.305182 4.685641 13.800531 4.059617 10.873106 -13.573295 0.000000 -0.000000 0.000000 1.640839 -8.185678 9.405083 -2.271068 -6.181649 6.598543 2.033879 -10.962636 -20.042178 0.000000 -0.000000 0.000000 3.171684 3.866145 14.950417 0.885613 -4.273861 7.829668 0.275361 -1.485783 5.401967 -2.917984 5.387892 3.972853 1.130158 4.744514 1.773705 -25.867054 4.543110 4.540318 -53.259794 2.701937 9.481077 9.009484 -45.669075 6.760722 -1.440215 -10.480625 -21.846015 22.593371 0.294115 5.826406 51.360160 -2.526216 12.100989 -11.896642 40.472173 4.739326 8.830053 7.705829 -5.185916 
0.872351 -1.855984 0.971792 167.017591 0.737439 87.436941 0.797755 -0.072671 -8.594121 -2.301863 3.860781 14.259161 3.324890 11.030440 -13.594773 0.000000 -0.000000 0.000000 1.570835 -8.166808 9.724254 -2.177882 -6.342564 6.290820 2.278868 -10.789483 -20.435646 0.000000 -0.000000 0.000000 3.376615 3.016212 16.923613 0.556900 -4.414764 6.123585 -0.088612 -1.145175 4.285051 -2.664546 5.688760 4.018416 1.297686 4.931149 2.829934 -25.675452 5.512756 4.157629 -52.806918 3.528644 9.195925 7.608940 -45.749984 8.018765 -1.322084 -10.808359 -21.445007 22.802093 -0.127646 6.032681 51.385093 -2.616375 12.260647 -11.100365 40.264919 5.252422 8.785926 7.617038 -4.802302 
0.873021 -1.855626 0.971256 166.967894 0.739609 87.300444 0.815077 0.280552 -8.384226 -2.350553 3.642964 14.285432 3.077321 11.040392 -13.654179 0.000000 -0.000000 0.000000 1.535764 -8.206395 10.025931 -2.041968 -6.347819 6.005926 2.174285 -10.667910 -20.540707 0.000000 -0.000000 0.000000 3.365966 2.806409 17.674511 0.451633 -4.424740 5.556389 -0.148954 -0.997666 3.899669 -2.538810 5.770951 3.957751 1.365127 4.981731 3.266520 -25.608617 5.660762 4.115353 -52.708132 3.735435 9.009601 7.177464 -45.622221 8.242859 -1.241305 -10.893097 -21.198883 22.904092 -0.110875 6.109165 51.436499 -2.556116 12.231142 -10.857354 40.111305 5.085431 8.695330 7.569668 -4.826857 
0.873378 -1.855574 0.971014 166.943627 0.760992 87.248529 0.868220 0.342488 -8.289288 -2.367120 3.662766 14.271996 3.039367 10.973455 -13.730504 0.000000 -0.000000 0.000000 1.544990 -8.207487 10.171407 -1.954874 -6.356225 5.846121 2.037346 -10.663534 -20.587914 0.000000 -0.000000 0.000000 3.329878 2.824330 17.716683 0.454713 -4.426749 5.564970 -0.110698 -0.969078 3.905356 -2.525652 5.751506 3.897646 1.357634 4.954593 3.317416 -25.587737 5.546021 4.182792 -52.778732 3.705804 8.960699 7.217080 -45.548858 8.157047 -1.201331 -10.871926 -21.169977 22.937737 -0.020860 6.116343 51.432473 -2.503961 12.176938 -10.851620 40.093979 4.951863 8.605908 7.542289 -4.950811 
0.873714 -1.855613 0.970771 166.952023 0.777193 87.195691 0.897129 0.386323 -8.288656 -2.407048 3.462935 14.396293 3.048347 11.068250 -13.775411 0.000000 -0.000000 0.000000 1.523103 -8.229956 10.336939 -1.809670 -6.360473 5.649592 1.828622 -10.676157 -20.648659 0.000000 -0.000000 0.000000 3.282806 2.831976 17.764482 0.472762 -4.448047 5.539764 -0.071845 -0.924355 3.947073 -2.515048 5.712258 3.784964 1.337048 4.924804 3.396457 -25.518765 5.433217 4.276008 -52.906964 3.651871 8.911065 7.253550 -45.461505 8.169519 -1.082242 -10.862393 -21.242649 22.974808 0.055810 6.125643 51.404231 -2.446348 12.090766 -10.745739 39.925954 5.153931 8.431891 7.642747 -4.726643 
0.874101 -1.855663 0.970633 166.922532 0.798700 87.124798 0.951420 0.458590 -8.165543 -2.434492 3.442631 14.353789 3.032974 11.032836 -13.854534 0.000000 -0.000000 0.000000 1.508159 -8.234267 10.528584 -1.677397 -6.370965 5.442675 1.652527 -10.653081 -20.707508 0.000000 -0.000000 0.000000 3.238156 2.857395 17.796024 0.481327 -4.441065 5.563599 -0.025753 -0.876850 3.959115 -2.498210 5.692789 3.740907 1.315146 4.904256 3.441956 -25.456124 5.329615 4.364614 -53.024213 3.638017 8.865068 7.357977 -45.417003 8.131405 -1.043826 -10.853430 -21.286964 22.988416 0.123236 6.135673 51.420722 -2.426761 12.008047 -10.731760 39.838984 5.204079 8.366606 7.699291 -4.729607 
0.874403 -1.855860 0.970504 166.925139 0.827102 87.083300 1.017559 0.486377 -8.108901 -2.460449 3.456933 14.341331 3.008151 10.975747 -13.925046 0.000000 -0.000000 0.000000 1.510600 -8.223507 10.674298 -1.540953 -6.410823 5.249356 1.464817 -10.657078 -20.765624 0.000000 -0.000000 0.000000 3.198117 2.873785 17.795268 0.503795 -4.434658 5.587226 0.020884 -0.824583 3.984947 -2.471573 5.670179 3.705123 1.285334 4.876348 3.500452 -25.386310 5.249647 4.436627 -53.155538 3.605591 8.830965 7.490376 -45.401214 8.077244 -0.991860 -10.836383 -21.320334 22.992056 0.164468 6.145833 51.425976 -2.421286 11.942239 -10.727408 39.811862 5.253122 8.321022 7.742556 -4.803047 
0.874603 -1.856200 0.970377 166.958784 0.847285 87.070689 1.057557 0.465349 -8.170297 -2.509472 3.279816 14.426992 3.029683 11.079422 -13.925346 0.000000 -0.000000 0.000000 1.495700 -8.221257 10.760216 -1.387016 -6.455156 5.087344 1.265469 -10.666233 -20.814398 0.000000 -0.000000 0.000000 3.149784 2.880023 17.777021 0.543232 -4.433675 5.577267 0.054890 -0.775136 4.038947 -2.433070 5.655302 3.666671 1.257313 4.842719 3.584965 -25.301363 5.196624 4.486845 -53.279890 3.556128 8.834742 7.594381 -45.411307 8.049158 -0.852732 -10.791565 -21.456388 22.980876 0.189103 6.150172 51.444624 -2.394316 11.899050 -10.715426 39.767384 5.307377 8.219691 7.770904 -4.933332 
0.874937 -1.856553 0.970295 166.934800 0.868768 87.027514 1.129772 0.502701 -8.070369 -2.558197 3.299520 14.335539 3.012343 11.050955 -13.995631 0.000000 -0.000000 0.000000 1.487097 -8.177818 10.938376 -1.212217 -6.463811 4.809189 1.062753 -10.704133 -20.836958 0.000000 -0.000000 0.000000 3.071487 2.925069 17.730015 0.581634 -4.394324 5.640774 0.113088 -0.719559 4.077048 -2.395236 5.641771 3.666030 1.212383 4.822290 3.653958 -25.224334 5.131496 4.556390 -53.373048 3.509788 8.827023 7.683531 -45.433700 8.006965 -0.760345 -10.759298 -21.560824 23.002485 0.196827 6.169407 51.418603 -2.395997 11.849596 -10.694194 39.820586 5.335077 8.136247 7.747349 -5.043061 
0.875140 -1.856925 0.970314 166.933912 0.879900 86.989095 1.170070 0.534997 -8.021511 -2.580271 3.289326 14.307200 3.014399 11.001276 -14.032176 0.000000 -0.000000 0.000000 1.473666 -8.156104 11.069784 -1.069502 -6.498502 4.609326 0.856223 -10.725036 -20.890017 0.000000 -0.000000 0.000000 3.003472 2.953022 17.723487 0.605395 -4.378527 5.662966 0.161994 -0.677011 4.099861 -2.367294 5.643303 3.644249 1.180868 4.793048 3.724176 -25.142423 5.058035 4.633185 -53.476528 3.478570 8.803876 7.785667 -45.427809 7.978301 -0.686556 -10.759732 -21.658044 23.021368 0.234590 6.197936 51.431315 -2.379132 11.806438 -10.690460 39.828456 5.374435 8.068930 7.753890 -5.153290 
0.875236 -1.857285 0.970285 166.952675 0.856607 86.970553 1.150114 0.552519 -8.030703 -2.610738 3.097477 14.315009 3.073124 11.072156 -13.970441 0.000000 -0.000000 0.000000 1.406890 -8.161435 11.129821 -0.936454 -6.545702 4.499258 0.669025 -10.709614 -20.952579 0.000000 -0.000000 0.000000 2.912759 2.987415 17.692147 0.631987 -4.387575 5.669843 0.197133 -0.640813 4.138774 -2.340126 5.636742 3.641224 1.153888 4.768645 3.771756 -25.050033 4.994264 4.711520 -53.578565 3.462373 8.814291 7.879183 -45.441284 7.971352 -0.552958 -10.696688 -21.825756 23.023086 0.271329 6.221954 51.468917 -2.348192 11.771955 -10.708868 39.827403 5.388316 8.007927 7.755190 -5.293713 
0.875392 -1.857546 0.970302 166.942739 0.867388 86.925350 1.178622 0.602507 -7.966984 -2.631515 3.016586 14.272916 3.060152 11.078132 -13.957323 0.000000 -0.000000 0.000000 1.425983 -8.175871 11.181839 -0.927108 -6.536023 4.462333 0.595533 -10.703241 -20.976728 0.000000 -0.000000 0.000000 2.867861 3.007046 17.693501 0.644376 -4.371893 5.695645 0.228946 -0.608448 4.152731 -2.318614 5.623139 3.657602 1.134918 4.749590 3.783769 -24.997061 4.949509 4.754565 -53.637875 3.458921 8.805151 7.913991 -45.439520 7.970210 -0.520806 -10.664008 -21.888759 23.023744 0.301667 6.237853 51.490407 -2.338539 11.742395 -10.720502 39.861489 5.380746 7.975733 7.743665 -5.385121 
